#N canvas 2 -3 1920 956 12;
#N canvas -11 -11 1920 956 set 0;
#X obj 69 484 f -1;
#X obj 46 412 r array;
#X obj 69 541 s oct;
#X obj 91 563 s seven;
#X obj 113 586 s five;
#X obj 135 609 s quad;
#X obj 157 632 s stereo;
#X obj 49 191 s s1a;
#X obj 71 233 s s2a;
#X obj 93 276 s s3a;
#X obj 115 319 s s4a;
#X obj 159 192 s s5a;
#X obj 49 212 s s1;
#X obj 71 253 s s2;
#X obj 93 296 s s3;
#X obj 159 212 s s5;
#X obj 181 233 s s6a;
#X obj 181 253 s s6;
#X obj 203 276 s s7a;
#X obj 203 296 s s7;
#X obj 225 319 s s8a;
#X obj 225 339 s s8;
#X obj 115 339 s s4;
#X obj 269 192 s s9a;
#X obj 269 212 s s9;
#X obj 291 233 s s10a;
#X obj 291 253 s s10;
#X obj 313 276 s s11a;
#X obj 313 296 s s11;
#X obj 335 319 s s12a;
#X obj 335 339 s s12;
#X obj 399 192 s s13a;
#X obj 399 212 s s13;
#X obj 421 233 s s14a;
#X obj 421 253 s s14;
#X obj 443 276 s s15a;
#X obj 443 296 s s15;
#X obj 465 319 s s16a;
#X obj 465 339 s s16;
#X obj 539 192 s s17a;
#X obj 539 212 s s17;
#X obj 561 233 s s18a;
#X obj 561 253 s s18;
#X obj 583 276 s s19a;
#X obj 583 296 s s19;
#X obj 605 319 s s20a;
#X obj 605 339 s s20;
#X obj 679 192 s s21a;
#X obj 679 212 s s21;
#X obj 701 233 s s22a;
#X obj 701 253 s s22;
#X obj 723 276 s s23a;
#X obj 723 296 s s23;
#X obj 745 319 s s24a;
#X obj 745 339 s s24;
#X obj 819 192 s s25a;
#X obj 819 212 s s25;
#X obj 841 233 s s26a;
#X obj 841 253 s s26;
#X obj 863 276 s s27a;
#X obj 863 296 s s27;
#X obj 885 319 s s28a;
#X obj 885 339 s s28;
#X obj 959 192 s s29a;
#X obj 959 212 s s29;
#X obj 981 233 s s30a;
#X obj 981 253 s s30;
#X obj 1003 276 s s31a;
#X obj 1003 296 s s31;
#X obj 1025 319 s s32a;
#X obj 1025 339 s s32;
#X obj 26 22 r set1;
#X obj 49 134 route 0 1 2 3;
#X obj 49 166 tgl 18 0 empty empty empty 17 7 0 10 -262144 -1 -1 0
1;
#X obj 71 166 tgl 18 0 empty empty empty 17 7 0 10 -262144 -1 -1 0
1;
#X obj 93 166 tgl 18 0 empty empty empty 17 7 0 10 -262144 -1 -1 0
1;
#X obj 115 166 tgl 18 0 empty empty empty 17 7 0 10 -262144 -1 -1 0
1;
#X obj 26 54 t f f b;
#X obj 49 100 f -1;
#X obj 159 166 tgl 18 0 empty empty empty 17 7 0 10 -262144 -1 -1 0
1;
#X obj 181 166 tgl 18 0 empty empty empty 17 7 0 10 -262144 -1 -1 0
1;
#X obj 203 166 tgl 18 0 empty empty empty 17 7 0 10 -262144 -1 -1 0
1;
#X obj 225 166 tgl 18 0 empty empty empty 17 7 0 10 -262144 -1 -1 0
1;
#X obj 136 54 t f f b;
#X obj 159 100 f -1;
#X obj 269 166 tgl 18 0 empty empty empty 17 7 0 10 -262144 -1 -1 0
1;
#X obj 291 166 tgl 18 0 empty empty empty 17 7 0 10 -262144 -1 -1 0
1;
#X obj 313 166 tgl 18 0 empty empty empty 17 7 0 10 -262144 -1 -1 0
1;
#X obj 335 166 tgl 18 0 empty empty empty 17 7 0 10 -262144 -1 -1 0
1;
#X obj 246 54 t f f b;
#X obj 269 100 f -1;
#X obj 399 166 tgl 18 0 empty empty empty 17 7 0 10 -262144 -1 -1 0
1;
#X obj 421 166 tgl 18 0 empty empty empty 17 7 0 10 -262144 -1 -1 0
1;
#X obj 443 166 tgl 18 0 empty empty empty 17 7 0 10 -262144 -1 -1 0
1;
#X obj 465 166 tgl 18 0 empty empty empty 17 7 0 10 -262144 -1 -1 0
1;
#X obj 376 54 t f f b;
#X obj 399 100 f -1;
#X obj 269 134 route 8 9 10 11;
#X obj 159 134 route 4 5 6 7;
#X obj 399 134 route 12 13 14 15;
#X obj 539 166 tgl 18 0 empty empty empty 17 7 0 10 -262144 -1 -1 0
1;
#X obj 561 166 tgl 18 0 empty empty empty 17 7 0 10 -262144 -1 -1 0
1;
#X obj 583 166 tgl 18 0 empty empty empty 17 7 0 10 -262144 -1 -1 0
1;
#X obj 605 166 tgl 18 0 empty empty empty 17 7 0 10 -262144 -1 -1 0
1;
#X obj 516 54 t f f b;
#X obj 539 100 f -1;
#X obj 539 134 route 16 17 18 19;
#X obj 679 166 tgl 18 0 empty empty empty 17 7 0 10 -262144 -1 -1 0
1;
#X obj 701 166 tgl 18 0 empty empty empty 17 7 0 10 -262144 -1 -1 0
1;
#X obj 723 166 tgl 18 0 empty empty empty 17 7 0 10 -262144 -1 -1 0
1;
#X obj 745 166 tgl 18 0 empty empty empty 17 7 0 10 -262144 -1 -1 0
1;
#X obj 656 54 t f f b;
#X obj 679 100 f -1;
#X obj 819 166 tgl 18 0 empty empty empty 17 7 0 10 -262144 -1 -1 0
1;
#X obj 841 166 tgl 18 0 empty empty empty 17 7 0 10 -262144 -1 -1 0
1;
#X obj 863 166 tgl 18 0 empty empty empty 17 7 0 10 -262144 -1 -1 0
1;
#X obj 885 166 tgl 18 0 empty empty empty 17 7 0 10 -262144 -1 -1 0
1;
#X obj 796 54 t f f b;
#X obj 819 100 f -1;
#X obj 959 166 tgl 18 0 empty empty empty 17 7 0 10 -262144 -1 -1 0
1;
#X obj 981 166 tgl 18 0 empty empty empty 17 7 0 10 -262144 -1 -1 0
1;
#X obj 1003 166 tgl 18 0 empty empty empty 17 7 0 10 -262144 -1 -1
0 1;
#X obj 1025 166 tgl 18 0 empty empty empty 17 7 0 10 -262144 -1 -1
0 1;
#X obj 936 54 t f f b;
#X obj 959 100 f -1;
#X obj 679 134 route 20 21 22 23;
#X obj 819 134 route 24 25 26 27;
#X obj 959 134 route 28 29 30 31;
#X obj 69 518 route 0 1 2 3 4;
#X obj 46 438 t f f f b;
#X connect 0 0 128 0;
#X connect 1 0 129 0;
#X connect 71 0 77 0;
#X connect 71 0 83 0;
#X connect 71 0 89 0;
#X connect 71 0 95 0;
#X connect 71 0 104 0;
#X connect 71 0 111 0;
#X connect 71 0 117 0;
#X connect 71 0 123 0;
#X connect 72 0 73 0;
#X connect 72 1 74 0;
#X connect 72 2 75 0;
#X connect 72 3 76 0;
#X connect 73 0 7 0;
#X connect 73 0 12 0;
#X connect 74 0 8 0;
#X connect 74 0 13 0;
#X connect 75 0 9 0;
#X connect 75 0 14 0;
#X connect 76 0 10 0;
#X connect 76 0 22 0;
#X connect 77 0 78 1;
#X connect 77 1 78 0;
#X connect 77 2 78 0;
#X connect 78 0 72 0;
#X connect 79 0 11 0;
#X connect 79 0 15 0;
#X connect 80 0 16 0;
#X connect 80 0 17 0;
#X connect 81 0 18 0;
#X connect 81 0 19 0;
#X connect 82 0 20 0;
#X connect 82 0 21 0;
#X connect 83 0 84 1;
#X connect 83 1 84 0;
#X connect 83 2 84 0;
#X connect 84 0 98 0;
#X connect 85 0 23 0;
#X connect 85 0 24 0;
#X connect 86 0 25 0;
#X connect 86 0 26 0;
#X connect 87 0 27 0;
#X connect 87 0 28 0;
#X connect 88 0 29 0;
#X connect 88 0 30 0;
#X connect 89 0 90 1;
#X connect 89 1 90 0;
#X connect 89 2 90 0;
#X connect 90 0 97 0;
#X connect 91 0 31 0;
#X connect 91 0 32 0;
#X connect 92 0 33 0;
#X connect 92 0 34 0;
#X connect 93 0 35 0;
#X connect 93 0 36 0;
#X connect 94 0 37 0;
#X connect 94 0 38 0;
#X connect 95 0 96 1;
#X connect 95 1 96 0;
#X connect 95 2 96 0;
#X connect 96 0 99 0;
#X connect 97 0 85 0;
#X connect 97 1 86 0;
#X connect 97 2 87 0;
#X connect 97 3 88 0;
#X connect 98 0 79 0;
#X connect 98 1 80 0;
#X connect 98 2 81 0;
#X connect 98 3 82 0;
#X connect 99 0 91 0;
#X connect 99 1 92 0;
#X connect 99 2 93 0;
#X connect 99 3 94 0;
#X connect 100 0 39 0;
#X connect 100 0 40 0;
#X connect 101 0 41 0;
#X connect 101 0 42 0;
#X connect 102 0 43 0;
#X connect 102 0 44 0;
#X connect 103 0 45 0;
#X connect 103 0 46 0;
#X connect 104 0 105 1;
#X connect 104 1 105 0;
#X connect 104 2 105 0;
#X connect 105 0 106 0;
#X connect 106 0 100 0;
#X connect 106 1 101 0;
#X connect 106 2 102 0;
#X connect 106 3 103 0;
#X connect 107 0 47 0;
#X connect 107 0 48 0;
#X connect 108 0 49 0;
#X connect 108 0 50 0;
#X connect 109 0 51 0;
#X connect 109 0 52 0;
#X connect 110 0 53 0;
#X connect 110 0 54 0;
#X connect 111 0 112 1;
#X connect 111 1 112 0;
#X connect 111 2 112 0;
#X connect 112 0 125 0;
#X connect 113 0 55 0;
#X connect 113 0 56 0;
#X connect 114 0 57 0;
#X connect 114 0 58 0;
#X connect 115 0 59 0;
#X connect 115 0 60 0;
#X connect 116 0 61 0;
#X connect 116 0 62 0;
#X connect 117 0 118 1;
#X connect 117 1 118 0;
#X connect 117 2 118 0;
#X connect 118 0 126 0;
#X connect 119 0 63 0;
#X connect 119 0 64 0;
#X connect 120 0 65 0;
#X connect 120 0 66 0;
#X connect 121 0 67 0;
#X connect 121 0 68 0;
#X connect 122 0 69 0;
#X connect 122 0 70 0;
#X connect 123 0 124 1;
#X connect 123 1 124 0;
#X connect 123 2 124 0;
#X connect 124 0 127 0;
#X connect 125 0 107 0;
#X connect 125 1 108 0;
#X connect 125 2 109 0;
#X connect 125 3 110 0;
#X connect 126 0 113 0;
#X connect 126 1 114 0;
#X connect 126 2 115 0;
#X connect 126 3 116 0;
#X connect 127 0 119 0;
#X connect 127 1 120 0;
#X connect 127 2 121 0;
#X connect 127 3 122 0;
#X connect 128 0 2 0;
#X connect 128 1 3 0;
#X connect 128 2 4 0;
#X connect 128 3 5 0;
#X connect 128 4 6 0;
#X connect 129 0 0 1;
#X connect 129 1 0 0;
#X connect 129 2 0 0;
#X connect 129 3 0 0;
#X restore 856 235 pd set array;
#N canvas 347 299 1359 956 seq 0;
#X floatatom 62 154 5 0 0 0 - - -;
#X msg 62 76 0.25;
#X msg 122 76 0.5;
#X msg 172 76 1;
#X msg 222 76 2;
#X msg 273 76 3;
#X obj 172 51 r sec1;
#X obj 122 51 r sec5;
#X obj 62 51 r sec25;
#X obj 222 51 r sec2;
#X obj 273 51 r sec3;
#X floatatom 30 260 5 0 0 0 - - -;
#X obj 30 181 metro 1000;
#X obj 30 236 f;
#X obj 30 321 mod 8;
#X floatatom 30 342 5 0 0 0 - - -;
#X obj 62 299 r n;
#X obj 30 27 r metro;
#X obj 137 380 s set1;
#X obj 137 337 r set0;
#X msg 150 257 number \$1;
#X obj 458 141 route 0 1 2 3;
#X obj 435 61 t f f b;
#X obj 458 107 f -1;
#X obj 502 209 s sec1;
#X obj 458 164 s sec25;
#X obj 480 186 s sec5;
#X obj 524 232 s sec2;
#X obj 546 255 s sec3;
#X obj 435 35 r sec;
#X obj 30 459 s seq;
#X obj 65 236 + 1;
#X obj 289 310 s secsec;
#X obj 289 259 loadbang;
#X msg 289 284 2;
#X obj 62 131 expr $f1 * 1000;
#X connect 0 0 12 1;
#X connect 1 0 35 0;
#X connect 2 0 35 0;
#X connect 3 0 35 0;
#X connect 4 0 35 0;
#X connect 5 0 35 0;
#X connect 6 0 3 0;
#X connect 7 0 2 0;
#X connect 8 0 1 0;
#X connect 9 0 4 0;
#X connect 10 0 5 0;
#X connect 11 0 14 0;
#X connect 12 0 13 0;
#X connect 13 0 11 0;
#X connect 13 0 31 0;
#X connect 14 0 15 0;
#X connect 15 0 30 0;
#X connect 16 0 14 1;
#X connect 16 0 20 0;
#X connect 17 0 12 0;
#X connect 19 0 18 0;
#X connect 20 0 30 0;
#X connect 21 0 25 0;
#X connect 21 1 26 0;
#X connect 21 2 24 0;
#X connect 21 3 27 0;
#X connect 21 4 28 0;
#X connect 22 0 23 1;
#X connect 22 1 23 0;
#X connect 22 2 23 0;
#X connect 23 0 21 0;
#X connect 29 0 22 0;
#X connect 31 0 13 1;
#X connect 33 0 34 0;
#X connect 34 0 32 0;
#X connect 35 0 0 0;
#X restore 856 210 pd seq;
#N canvas -30 69 1920 953 noise 0;
#X obj 20 10 noise~;
#X obj 20 229 env~ 4096;
#X obj 20 99 s~ noise;
#X obj 20 77 *~;
#X obj 38 56 dbtorms;
#X obj 38 34 r db;
#X obj 20 272 s mic;
#X obj 20 135 adc~ 1;
#X obj 73 34 r noiseonoff;
#X obj 38 159 r miconoff;
#X obj 20 207 *~;
#X msg 254 30 \; pd dsp \$1;
#X obj 254 8 r dsp;
#X obj 127 436 s v1;
#X obj 165 184 r sp1;
#X obj 127 413 spigot;
#X obj 165 205 tgl 15 0 empty empty empty 17 7 0 10 -262144 -1 -1 0
1;
#X obj 217 413 spigot;
#X obj 255 205 tgl 15 0 empty empty empty 17 7 0 10 -262144 -1 -1 0
1;
#X obj 217 436 s v2;
#X obj 255 184 r sp2;
#X obj 307 413 spigot;
#X obj 345 205 tgl 15 0 empty empty empty 17 7 0 10 -262144 -1 -1 0
1;
#X obj 397 413 spigot;
#X obj 435 205 tgl 15 0 empty empty empty 17 7 0 10 -262144 -1 -1 0
1;
#X obj 487 413 spigot;
#X obj 525 205 tgl 15 0 empty empty empty 17 7 0 10 -262144 -1 -1 0
1;
#X obj 577 413 spigot;
#X obj 615 205 tgl 15 0 empty empty empty 17 7 0 10 -262144 -1 -1 0
1;
#X obj 667 413 spigot;
#X obj 705 205 tgl 15 0 empty empty empty 17 7 0 10 -262144 -1 -1 0
1;
#X obj 757 413 spigot;
#X obj 795 205 tgl 15 0 empty empty empty 17 7 0 10 -262144 -1 -1 0
1;
#X obj 307 436 s v3;
#X obj 397 436 s v4;
#X obj 487 436 s v5;
#X obj 577 436 s v6;
#X obj 667 436 s v7;
#X obj 757 436 s v8;
#X obj 345 184 r sp3;
#X obj 435 184 r sp4;
#X obj 525 184 r sp5;
#X obj 615 184 r sp6;
#X obj 705 184 r sp7;
#X obj 795 184 r sp8;
#X obj 161 108 s v0;
#X connect 0 0 3 0;
#X connect 1 0 6 0;
#X connect 1 0 15 0;
#X connect 1 0 17 0;
#X connect 1 0 21 0;
#X connect 1 0 23 0;
#X connect 1 0 25 0;
#X connect 1 0 27 0;
#X connect 1 0 31 0;
#X connect 1 0 29 0;
#X connect 3 0 2 0;
#X connect 4 0 3 1;
#X connect 5 0 4 0;
#X connect 5 0 45 0;
#X connect 7 0 10 0;
#X connect 8 0 4 0;
#X connect 9 0 10 1;
#X connect 10 0 1 0;
#X connect 12 0 11 0;
#X connect 14 0 16 0;
#X connect 15 0 13 0;
#X connect 16 0 15 1;
#X connect 17 0 19 0;
#X connect 18 0 17 1;
#X connect 20 0 18 0;
#X connect 21 0 33 0;
#X connect 22 0 21 1;
#X connect 23 0 34 0;
#X connect 24 0 23 1;
#X connect 25 0 35 0;
#X connect 26 0 25 1;
#X connect 27 0 36 0;
#X connect 28 0 27 1;
#X connect 29 0 37 0;
#X connect 30 0 29 1;
#X connect 31 0 38 0;
#X connect 32 0 31 1;
#X connect 39 0 22 0;
#X connect 40 0 24 0;
#X connect 41 0 26 0;
#X connect 42 0 28 0;
#X connect 43 0 30 0;
#X connect 44 0 32 0;
#X restore 856 184 pd noise;
#N canvas -11 -11 1920 956 32io 0;
#X obj 360 42 r~ noise;
#X obj 80 168 *~;
#X obj 100 198 *~;
#X obj 98 146 r s1;
#X obj 118 176 r s2;
#X obj 121 228 *~;
#X obj 139 206 r s3;
#X obj 142 258 *~;
#X obj 160 236 r s4;
#X obj 163 318 *~;
#X obj 183 348 *~;
#X obj 204 378 *~;
#X obj 224 408 *~;
#X obj 181 296 r s5;
#X obj 201 326 r s6;
#X obj 222 356 r s7;
#X obj 242 386 r s8;
#X obj 245 168 *~;
#X obj 266 198 *~;
#X obj 286 228 *~;
#X obj 307 258 *~;
#X obj 263 146 r s9;
#X obj 284 176 r s10;
#X obj 304 206 r s11;
#X obj 325 236 r s12;
#X obj 328 318 *~;
#X obj 349 348 *~;
#X obj 369 378 *~;
#X obj 390 408 *~;
#X obj 346 296 r s13;
#X obj 367 326 r s14;
#X obj 387 356 r s15;
#X obj 408 386 r s16;
#X obj 411 168 *~;
#X obj 432 198 *~;
#X obj 452 228 *~;
#X obj 473 258 *~;
#X obj 429 146 r s17;
#X obj 450 176 r s18;
#X obj 470 206 r s19;
#X obj 491 236 r s20;
#X obj 494 318 *~;
#X obj 514 348 *~;
#X obj 534 378 *~;
#X obj 555 408 *~;
#X obj 512 296 r s21;
#X obj 532 326 r s22;
#X obj 552 356 r s23;
#X obj 573 386 r s24;
#X obj 577 168 *~;
#X obj 596 198 *~;
#X obj 618 228 *~;
#X obj 638 258 *~;
#X obj 595 146 r s25;
#X obj 614 176 r s26;
#X obj 636 206 r s27;
#X obj 649 236 r s28;
#X obj 658 318 *~;
#X obj 679 348 *~;
#X obj 700 378 *~;
#X obj 721 408 *~;
#X obj 676 296 r s21;
#X obj 697 326 r s22;
#X obj 718 356 r s23;
#X obj 739 386 r s24;
#X obj 80 433 dac~ 1 2 3 4 5 6 7 8 9 10 11 12 13 14 15 16 17 18 19
20 21 22 23 24 25 26 27 28 29 30 31 32, f 92;
#X connect 0 0 1 0;
#X connect 0 0 2 0;
#X connect 0 0 5 0;
#X connect 0 0 7 0;
#X connect 0 0 9 0;
#X connect 0 0 10 0;
#X connect 0 0 11 0;
#X connect 0 0 12 0;
#X connect 0 0 17 0;
#X connect 0 0 18 0;
#X connect 0 0 19 0;
#X connect 0 0 20 0;
#X connect 0 0 25 0;
#X connect 0 0 26 0;
#X connect 0 0 27 0;
#X connect 0 0 28 0;
#X connect 0 0 33 0;
#X connect 0 0 34 0;
#X connect 0 0 35 0;
#X connect 0 0 36 0;
#X connect 0 0 41 0;
#X connect 0 0 42 0;
#X connect 0 0 43 0;
#X connect 0 0 44 0;
#X connect 0 0 49 0;
#X connect 0 0 50 0;
#X connect 0 0 51 0;
#X connect 0 0 52 0;
#X connect 0 0 57 0;
#X connect 0 0 58 0;
#X connect 0 0 59 0;
#X connect 0 0 60 0;
#X connect 1 0 65 0;
#X connect 2 0 65 1;
#X connect 3 0 1 1;
#X connect 4 0 2 1;
#X connect 5 0 65 2;
#X connect 6 0 5 1;
#X connect 7 0 65 3;
#X connect 8 0 7 1;
#X connect 9 0 65 4;
#X connect 10 0 65 5;
#X connect 11 0 65 6;
#X connect 12 0 65 7;
#X connect 13 0 9 1;
#X connect 14 0 10 1;
#X connect 15 0 11 1;
#X connect 16 0 12 1;
#X connect 17 0 65 8;
#X connect 18 0 65 9;
#X connect 19 0 65 10;
#X connect 20 0 65 11;
#X connect 21 0 17 1;
#X connect 22 0 18 1;
#X connect 23 0 19 1;
#X connect 24 0 20 1;
#X connect 25 0 65 12;
#X connect 26 0 65 13;
#X connect 27 0 65 14;
#X connect 28 0 65 15;
#X connect 29 0 25 1;
#X connect 30 0 26 1;
#X connect 31 0 27 1;
#X connect 32 0 28 1;
#X connect 33 0 65 16;
#X connect 34 0 65 17;
#X connect 35 0 65 18;
#X connect 36 0 65 19;
#X connect 37 0 33 1;
#X connect 38 0 34 1;
#X connect 39 0 35 1;
#X connect 40 0 36 1;
#X connect 41 0 65 20;
#X connect 42 0 65 21;
#X connect 43 0 65 22;
#X connect 44 0 65 23;
#X connect 45 0 41 1;
#X connect 46 0 42 1;
#X connect 47 0 43 1;
#X connect 48 0 44 1;
#X connect 49 0 65 24;
#X connect 50 0 65 25;
#X connect 51 0 65 26;
#X connect 52 0 65 27;
#X connect 53 0 49 1;
#X connect 54 0 50 1;
#X connect 55 0 51 1;
#X connect 56 0 52 1;
#X connect 57 0 65 28;
#X connect 58 0 65 29;
#X connect 59 0 65 30;
#X connect 60 0 65 31;
#X connect 61 0 57 1;
#X connect 62 0 58 1;
#X connect 63 0 59 1;
#X connect 64 0 60 1;
#X restore 856 261 pd 32io;
#N canvas -11 -11 1920 956 sp 0;
#X floatatom 97 471 4 0 1000 0 - - -;
#X obj 146 489 t b f;
#X floatatom 146 471 5 0 500 0 - - -;
#X msg 97 528 pos \$1 \$2;
#X text 18 471 x-position;
#X text 190 470 y-position;
#X obj 97 509 pack 265 350;
#X obj 97 547 s s0;
#X msg 57 237 pos 480 200;
#X msg 57 297 pos 480 380;
#X msg 57 346 pos 410 220;
#X msg 57 398 pos 550 360;
#X msg 177 247 pos 570 290;
#X msg 177 297 pos 390 290;
#X msg 177 348 pos 550 220;
#X msg 177 398 pos 410 360;
#X msg 307 118 pos 410 220;
#X msg 326 166 color -1.67117e+007 -1 -1;
#X msg 9 195 color -1 -1.67772e+007 -1.67772e+007;
#X obj 326 142 t b;
#X msg 307 36 stereo;
#X obj 307 97 t b;
#X msg 346 66 2;
#X obj 416 118 s nn;
#X msg 57 31 octophonic ring;
#X msg 92 56 8;
#X obj 57 69 t b;
#X obj 57 266 s s1a;
#X obj 57 321 s s5a;
#X obj 57 367 s s8a;
#X obj 57 417 s s4a;
#X obj 177 417 s s6a;
#X obj 177 367 s s2a;
#X obj 177 317 s s7a;
#X obj 177 266 s s3a;
#X obj 165 126 s canvas1;
#X msg 165 82 vis_size 250 150;
#X msg 165 104 vis_size 10 10;
#X msg 307 318 pos 410 220;
#X msg 326 366 color -1.67117e+007 -1 -1;
#X obj 326 342 t b;
#X obj 307 287 t b;
#X msg 307 246 quad;
#X msg 346 276 4;
#X msg 165 154 vis_size 250 50;
#X msg 397 317 pos 570 290;
#X msg 487 318 pos 410 360;
#X msg 577 318 pos 550 360;
#X obj 57 8 r oct;
#X obj 307 12 r stereo;
#X obj 307 225 r quad;
#X msg 326 556 color -1.67117e+007 -1 -1;
#X obj 326 532 t b;
#X obj 307 477 t b;
#X msg 307 436 five;
#X obj 307 415 r five;
#X msg 346 466 5;
#X msg 307 508 pos 410 220;
#X msg 397 507 pos 480 200;
#X msg 487 508 pos 550 220;
#X msg 577 508 pos 410 360;
#X msg 546 156 color -1.67117e+007 -1 -1;
#X obj 546 132 t b;
#X obj 527 77 t b;
#X msg 527 108 pos 410 220;
#X msg 617 107 pos 480 200;
#X msg 707 108 pos 550 220;
#X obj 527 15 r seven;
#X msg 527 36 seven;
#X msg 566 66 7;
#X msg 797 108 pos 570 290;
#X msg 887 108 pos 550 360;
#X obj 235 50 loadbang;
#X connect 0 0 6 0;
#X connect 1 0 6 0;
#X connect 1 1 6 1;
#X connect 2 0 1 0;
#X connect 3 0 7 0;
#X connect 6 0 3 0;
#X connect 8 0 27 0;
#X connect 9 0 28 0;
#X connect 10 0 29 0;
#X connect 11 0 30 0;
#X connect 12 0 34 0;
#X connect 13 0 33 0;
#X connect 14 0 32 0;
#X connect 15 0 31 0;
#X connect 16 0 19 0;
#X connect 16 0 27 0;
#X connect 17 0 32 0;
#X connect 17 0 27 0;
#X connect 18 0 27 0;
#X connect 18 0 28 0;
#X connect 18 0 29 0;
#X connect 18 0 30 0;
#X connect 18 0 31 0;
#X connect 18 0 32 0;
#X connect 18 0 33 0;
#X connect 18 0 34 0;
#X connect 19 0 17 0;
#X connect 20 0 21 0;
#X connect 20 0 22 0;
#X connect 21 0 16 0;
#X connect 21 0 36 0;
#X connect 21 0 12 0;
#X connect 21 0 14 0;
#X connect 22 0 23 0;
#X connect 24 0 25 0;
#X connect 24 0 26 0;
#X connect 25 0 23 0;
#X connect 26 0 8 0;
#X connect 26 0 37 0;
#X connect 26 0 9 0;
#X connect 26 0 12 0;
#X connect 26 0 15 0;
#X connect 26 0 11 0;
#X connect 26 0 13 0;
#X connect 26 0 14 0;
#X connect 26 0 10 0;
#X connect 26 0 18 0;
#X connect 36 0 35 0;
#X connect 37 0 35 0;
#X connect 38 0 40 0;
#X connect 38 0 27 0;
#X connect 39 0 32 0;
#X connect 39 0 12 0;
#X connect 39 0 30 0;
#X connect 39 0 34 0;
#X connect 39 0 27 0;
#X connect 40 0 39 0;
#X connect 41 0 38 0;
#X connect 41 0 44 0;
#X connect 41 0 45 0;
#X connect 41 0 46 0;
#X connect 41 0 47 0;
#X connect 41 0 14 0;
#X connect 42 0 41 0;
#X connect 42 0 43 0;
#X connect 43 0 23 0;
#X connect 44 0 35 0;
#X connect 45 0 31 0;
#X connect 45 0 28 0;
#X connect 46 0 30 0;
#X connect 47 0 34 0;
#X connect 48 0 24 0;
#X connect 49 0 20 0;
#X connect 50 0 42 0;
#X connect 51 0 27 0;
#X connect 51 0 32 0;
#X connect 51 0 34 0;
#X connect 51 0 28 0;
#X connect 51 0 30 0;
#X connect 52 0 51 0;
#X connect 53 0 57 0;
#X connect 53 0 58 0;
#X connect 53 0 59 0;
#X connect 53 0 44 0;
#X connect 53 0 60 0;
#X connect 53 0 11 0;
#X connect 54 0 53 0;
#X connect 54 0 56 0;
#X connect 55 0 54 0;
#X connect 56 0 23 0;
#X connect 57 0 52 0;
#X connect 57 0 27 0;
#X connect 58 0 32 0;
#X connect 59 0 34 0;
#X connect 60 0 28 0;
#X connect 61 0 27 0;
#X connect 61 0 32 0;
#X connect 61 0 34 0;
#X connect 61 0 28 0;
#X connect 61 0 30 0;
#X connect 61 0 31 0;
#X connect 61 0 33 0;
#X connect 62 0 61 0;
#X connect 63 0 64 0;
#X connect 63 0 65 0;
#X connect 63 0 66 0;
#X connect 63 0 70 0;
#X connect 63 0 71 0;
#X connect 63 0 37 0;
#X connect 63 0 15 0;
#X connect 64 0 62 0;
#X connect 64 0 27 0;
#X connect 65 0 32 0;
#X connect 66 0 34 0;
#X connect 67 0 68 0;
#X connect 68 0 63 0;
#X connect 68 0 69 0;
#X connect 69 0 23 0;
#X connect 70 0 30 0;
#X connect 71 0 28 0;
#X connect 72 0 24 0;
#X restore 856 285 pd sp array;
#X obj 200 7 cnv 15 680 150 empty empty empty 20 12 0 14 -204786 -66577
0;
#X floatatom 561 73 5 0 100 1 dB_RMS ### db;
#X obj 221 26 hradio 20 1 0 8 set0 seq empty 0 -8 0 20 -191407 -258113
-1 0;
#X floatatom 297 73 5 0 32 1 n nn n;
#X obj 297 105 tgl 15 0 metro $$$$$$ Auto.Diff. 17 7 0 10 -232576 -1
-1 0 1;
#X floatatom 561 104 5 0 0 1 dB_MIC mic ####;
#X obj 504 73 tgl 15 0 noiseonoff $$$$$$$ Noise 17 7 0 10 -203904 -1
-1 0 1;
#X obj 504 106 tgl 15 0 miconoff $$$$$$$$ Mic 17 7 0 10 -228856 -1
-1 0 1;
#X obj 224 76 vradio 15 1 0 5 sec secsec Rate(Sec) 0 -10 0 10 -262130
-4160 -1 2;
#X text 243 71 0.25;
#X text 243 87 0.5;
#X text 243 103 1;
#X text 243 119 2;
#X obj 394 75 vradio 15 1 0 5 array empty Diff.Array 0 -10 0 10 -204800
-1 -1 0;
#X text 413 71 Oct;
#X text 413 103 5;
#X text 413 87 7;
#X text 413 119 Quad;
#X obj 38 7 cnv 15 150 150 empty empty empty 20 12 0 14 -261234 -66577
0;
#X obj 64 33 tgl 100 0 dsp empty DSP 33 50 0 20 -228856 -4034 -1 0
1;
#X text 243 133 3;
#X text 413 134 Stereo;
#X obj 39 178 vsl 200 128 0 127 0 0 empty v0 PVU 0 -9 0 10 -1 -262144
-1 0 1;
#X obj 49 178 vsl 15 128 0 127 0 0 empty v1 empty 0 -9 0 10 -1 -258113
-1 0 1;
#X obj 74 178 vsl 15 128 0 127 0 0 empty v2 empty 0 -9 0 10 -1 -258113
-1 0 1;
#X obj 99 178 vsl 15 128 0 127 0 0 empty v3 empty 0 -9 0 10 -1 -258113
-1 0 1;
#X obj 124 178 vsl 15 128 0 127 0 0 empty v4 empty 0 -9 0 10 -1 -258113
-1 0 1;
#X obj 149 178 vsl 15 128 0 127 0 0 empty v5 empty 0 -9 0 10 -1 -258113
-1 0 1;
#X obj 174 178 vsl 15 128 0 127 0 0 empty v6 empty 0 -9 0 10 -1 -258113
-1 0 1;
#X obj 199 178 vsl 15 128 0 127 0 0 empty v7 empty 0 -9 0 10 -1 -258113
-1 0 1;
#X obj 224 178 vsl 15 128 0 127 0 0 empty v8 empty 0 -9 0 10 -1 -258113
-1 0 1;
#X text 51 308 1;
#X text 75 308 2;
#X text 100 308 3;
#X text 125 308 4;
#X text 151 308 5;
#X text 176 308 6;
#X text 201 308 7;
#X text 226 308 8;
#X text 44 328 Set noise dB_RMS output level reference and use omni
mic at auto_diff off and select speakers(n) to measure and level each
speakers volume output from FOH, f 27;
#X text 218 8 Speakers(n);
#X obj 366 176 cnv 15 250 250 empty canvas2 empty 20 12 0 14 -228856
-66577 0;
#X obj 410 220 tgl 20 0 sp8 s8a 8 7 10 0 10 -1 -262140 -262140 0 1
;
#X obj 550 220 tgl 20 0 sp2 s2a 2 7 10 0 10 -1 -262140 -262140 0 1
;
#X obj 480 200 tgl 20 0 sp1 s1a 1 7 10 0 10 -1 -262140 -262140 0 1
;
#X obj 390 290 tgl 20 0 sp7 s7a 7 7 10 0 10 -1 -262140 -262140 0 1
;
#X obj 570 290 tgl 20 0 sp3 s3a 3 7 10 0 10 -1 -262140 -262140 0 1
;
#X obj 410 360 tgl 20 0 sp6 s6a 6 7 10 0 10 -1 -262140 -262140 0 1
;
#X obj 550 360 tgl 20 0 sp4 s4a 4 7 10 0 10 -1 -262140 -262140 0 1
;
#X obj 480 380 tgl 20 0 sp5 s5a 5 7 10 0 10 -1 -262140 -262140 0 1
;
#X obj 366 261 cnv 15 10 10 empty canvas1 empty 20 12 0 14 -228856
-66577 0;
#X obj 480 200 tgl 20 0 sp1 s1a ^1 3 10 0 10 -1 -262140 -262140 0 1
;
#X obj 480 200 tgl 20 0 sp1 s1a S1 4 10 0 10 -1 -262140 -262140 0 1
;
#X text 720 379 Speakers loudness callibration for surround (and periphonic)
array diffusion. (Pilot DEMO) Ainolnaim Azizol©2022 anllume@gmail.com
, f 30;
